<?xml version="1.0" encoding="iso-8859-1"?>
<!-- Generator: Adobe Illustrator 19.0.0, SVG Export Plug-In . SVG Version: 6.00 Build 0)  -->
<svg version="1.1" id="Layer_1" xmlns="http://www.w3.org/2000/svg" xmlns:xlink="http://www.w3.org/1999/xlink" x="0px" y="0px"
	 viewBox="0 0 504.32 504.32" style="enable-background:new 0 0 504.32 504.32;" xml:space="preserve">
<path style="fill:#AAB1BA;" d="M76.8,316.16c3.413-2.56,4.267-8.533,1.707-11.947c-2.56-3.413-8.533-4.267-11.947-1.707
	c-3.413,2.56-5.12,7.68-1.707,11.947C67.413,317.867,72.533,318.72,76.8,316.16 M148.48,103.68c2.56-4.267,1.707-9.387-1.707-11.947
	c-3.413-2.56-9.387-1.707-11.947,1.707c-2.56,3.413-1.707,9.387,1.707,11.947C140.8,107.947,145.92,107.093,148.48,103.68
	 M178.347,228.267c10.24-31.573-6.827-64.853-38.4-75.093c-31.573-10.24-64.853,6.827-75.093,38.4
	c-10.24,31.573,6.827,64.853,38.4,75.093C134.827,276.907,168.96,259.84,178.347,228.267 M220.16,398.08
	c19.627-26.453,13.653-64-13.653-83.627c-26.453-19.627-64-13.653-83.627,12.8c-19.627,26.453-13.653,64,13.653,83.627
	C162.987,430.507,200.533,424.533,220.16,398.08 M252.587,449.28c4.267-1.707,6.827-5.973,5.12-11.093
	c-1.707-4.267-5.973-6.827-11.093-5.12c-4.267,1.707-6.827,5.973-5.12,11.093C243.2,448.427,248.32,450.987,252.587,449.28
	 M277.333,252.16c0-14.507-11.093-25.6-25.6-25.6c-14.507,0-25.6,11.093-25.6,25.6c0,14.507,11.093,25.6,25.6,25.6
	C266.24,277.76,277.333,266.667,277.333,252.16 M311.467,115.627c0-33.28-26.453-59.733-59.733-59.733S192,82.347,192,115.627
	s26.453,59.733,59.733,59.733S311.467,148.907,311.467,115.627 M372.053,102.827c1.707-4.267-0.853-9.387-5.12-11.093
	c-4.267-1.707-9.387,0.853-11.093,5.12c-1.707,4.267,0.853,9.387,5.12,11.093C366.08,109.653,370.347,107.093,372.053,102.827
	 M366.933,410.88c26.453-19.627,32.427-56.32,13.653-83.627c-19.627-26.453-57.173-32.427-83.627-12.8
	c-26.453,19.627-32.427,56.32-12.8,83.627C302.933,424.533,340.48,430.507,366.933,410.88 M439.467,311.893
	c0-4.267-4.267-8.533-8.533-8.533c-5.12,0-8.533,4.267-8.533,8.533c0,5.12,3.413,8.533,8.533,8.533
	C435.2,320.427,439.467,317.013,439.467,311.893 M400.213,266.667c31.573-10.24,48.64-43.52,38.4-75.093
	c-10.24-31.573-43.52-48.64-75.093-38.4c-31.573,10.24-48.64,43.52-38.4,75.093C335.36,259.84,368.64,276.907,400.213,266.667
	 M251.733,4.693C388.267,4.693,499.2,115.627,499.2,252.16S388.267,499.627,251.733,499.627S4.267,388.693,4.267,252.16
	S115.2,4.693,251.733,4.693"/>
<path style="fill:#51565F;" d="M499.2,503.893H251.733C112.64,503.893,0,391.253,0,252.16S112.64,0.427,251.733,0.427
	s251.733,112.64,251.733,251.733c0,88.747-45.227,169.813-121.173,215.893c-1.707,0.853-4.267,0.853-5.973-1.707
	c-0.853-1.707-0.853-4.267,1.707-5.973C451.413,416,495.787,338.346,495.787,252.16c0-133.973-109.227-243.2-243.2-243.2
	c-133.973,0-243.2,109.227-243.2,243.2s109.227,243.2,243.2,243.2h247.467c2.56,0,4.267,1.707,4.267,4.267
	C504.32,502.186,501.76,503.893,499.2,503.893z M250.027,453.547c-1.707,0-4.267-0.853-5.973-1.707
	c-3.413-1.707-5.12-4.267-5.973-7.68c-0.853-3.413-0.853-6.827,0.853-9.387c1.707-3.413,4.267-5.12,7.68-5.973
	c6.827-2.56,13.653,1.707,16.213,8.533c2.56,6.827-1.707,13.653-8.533,16.213l0,0C252.587,453.547,251.733,453.547,250.027,453.547z
	 M250.027,436.48c-0.853,0-0.853,0-1.707,0c-0.853,0-1.707,0.853-2.56,1.707c-0.853,0.853-0.853,2.56,0,3.413
	c0,0.853,0.853,1.707,1.707,2.56c0.853,0.853,2.56,0.853,3.413,0l0,0c2.56-0.853,3.413-3.413,2.56-5.12
	C253.44,438.187,251.733,436.48,250.027,436.48z M331.947,426.24c-3.413,0-6.827,0-10.24-0.853
	c-17.067-2.56-31.573-11.947-41.813-25.6l0,0c-10.24-13.653-14.507-30.72-11.093-47.787c2.56-17.067,11.947-31.573,25.6-41.813
	c28.16-20.48,68.267-14.507,89.6,14.507c10.24,13.653,14.507,30.72,11.093,47.787c-2.56,17.067-11.947,31.573-25.6,41.813
	C358.4,422.827,345.6,426.24,331.947,426.24z M286.72,395.52c8.533,11.947,21.333,19.627,35.84,22.187
	c14.507,2.56,29.013-0.853,40.96-10.24c11.947-8.533,19.627-21.333,22.187-35.84c2.56-14.507-0.853-29.013-10.24-40.96
	c-17.92-24.747-52.907-29.867-77.653-11.947c-11.947,8.533-19.627,21.333-22.187,35.84
	C274.773,368.213,278.187,383.573,286.72,395.52L286.72,395.52z M171.52,426.24c-12.8,0-26.453-4.267-37.547-11.947
	c-13.653-10.24-23.04-24.747-25.6-41.813c-2.56-17.067,1.707-34.133,11.093-47.787l0,0c10.24-13.653,24.747-23.04,41.813-25.6
	c17.067-2.56,34.133,1.707,47.787,11.093c28.16,20.48,34.987,60.587,14.507,89.6C210.773,417.707,191.147,426.24,171.52,426.24z
	 M171.52,306.773c-2.56,0-5.973,0-8.533,0.853c-14.507,2.56-27.307,10.24-35.84,22.187l0,0c-8.533,11.947-11.947,26.453-10.24,40.96
	c2.56,14.507,10.24,27.307,22.187,35.84c24.747,17.92,59.733,12.8,77.653-11.947s12.8-59.733-11.947-77.653
	C194.56,311.04,183.467,306.773,171.52,306.773z M430.933,324.693c-6.827,0-12.8-5.973-12.8-12.8s5.973-12.8,12.8-12.8
	s12.8,5.973,12.8,12.8S437.76,324.693,430.933,324.693z M430.933,307.627c-2.56,0-4.267,1.707-4.267,4.267s1.707,4.267,4.267,4.267
	s4.267-1.707,4.267-4.267S433.493,307.627,430.933,307.627z M71.68,322.133c-0.853,0-1.707,0-1.707,0
	c-3.413-0.853-5.973-2.56-8.533-5.12c-2.56-2.56-2.56-5.973-2.56-9.387c0.853-3.413,2.56-5.973,5.12-8.533
	c2.56-1.707,5.973-2.56,9.387-2.56c3.413,0.853,5.973,2.56,8.533,5.12c4.267,5.973,2.56,13.653-2.56,17.92
	C76.8,321.28,74.24,322.133,71.68,322.133z M71.68,305.067c-0.853,0-1.707,0-2.56,0.853c-0.853,0.853-1.707,1.707-1.707,2.56
	c0,0.853,0,2.56,0.853,3.413l0,0c0.853,0.853,1.707,1.707,2.56,1.707c0.853,0,2.56,0,3.413-0.853
	c1.707-1.707,2.56-4.267,0.853-5.973C74.24,305.92,73.387,305.067,71.68,305.067L71.68,305.067z M251.733,282.027
	c-16.213,0-29.867-13.653-29.867-29.867s13.653-29.867,29.867-29.867S281.6,235.947,281.6,252.16S267.947,282.027,251.733,282.027z
	 M251.733,230.827c-11.947,0-21.333,9.387-21.333,21.333c0,11.947,9.387,21.333,21.333,21.333c11.947,0,21.333-9.387,21.333-21.333
	C273.067,240.213,263.68,230.827,251.733,230.827z M122.027,274.347c-6.827,0-12.8-0.853-19.627-3.413
	C69.12,259.84,50.347,224,61.44,189.867c11.093-33.28,46.933-52.053,80.213-40.96l0,0c16.213,5.12,29.867,16.213,37.547,31.573
	c7.68,15.36,9.387,32.427,4.267,48.64C174.08,256.427,148.48,274.347,122.027,274.347z M122.027,154.88
	c-23.04,0-45.227,14.507-52.907,38.4c-9.387,29.013,6.827,60.587,35.84,69.973c29.013,9.387,60.587-6.827,69.973-35.84
	c4.267-14.507,3.413-29.013-3.413-42.667c-6.827-12.8-17.92-23.04-32.427-27.307l0,0C133.12,155.733,128,154.88,122.027,154.88z
	 M381.44,274.347c-27.307,0-52.053-17.067-60.587-44.373c-11.093-33.28,7.68-69.973,40.96-81.067
	c33.28-11.093,69.973,7.68,81.067,40.96c5.12,16.213,4.267,33.28-4.267,48.64c-8.533,15.36-21.333,26.453-37.547,31.573l0,0
	C395.093,272.64,388.267,274.347,381.44,274.347z M381.44,154.88c-5.973,0-11.093,0.853-17.067,2.56
	c-29.013,9.387-45.227,40.96-35.84,69.973s40.96,45.227,69.973,35.84c14.507-4.267,25.6-14.507,32.427-27.307
	s7.68-28.16,3.413-42.667C426.667,169.387,405.333,154.88,381.44,154.88z M251.733,179.627c-34.987,0-64-29.013-64-64
	s29.013-64,64-64s64,29.013,64,64S286.72,179.627,251.733,179.627z M251.733,60.16c-30.72,0-55.467,24.747-55.467,55.467
	s24.747,55.467,55.467,55.467s55.467-24.747,55.467-55.467S282.453,60.16,251.733,60.16z M363.52,113.067
	c-1.707,0-2.56,0-4.267-0.853c-6.827-2.56-10.24-9.387-8.533-16.213c2.56-6.827,9.387-10.24,16.213-8.533l0,0
	c6.827,2.56,10.24,9.387,8.533,16.213c-0.853,3.413-3.413,5.973-5.973,7.68C367.787,112.213,366.08,113.067,363.52,113.067z
	 M363.52,96c-1.707,0-3.413,0.853-4.267,2.56c-0.853,2.56,0.853,4.267,2.56,5.12c0.853,0,2.56,0,3.413,0
	c0.853-0.853,1.707-1.707,1.707-2.56c0.853-2.56-0.853-4.267-2.56-5.12C365.227,96,364.373,96,363.52,96z M141.653,111.36
	c-2.56,0-5.12-0.853-7.68-2.56c-5.973-4.267-6.827-11.947-2.56-17.92l0,0c4.267-5.973,11.947-6.827,17.92-2.56
	c5.973,4.267,6.827,11.947,2.56,17.92C149.333,109.653,145.92,111.36,141.653,111.36z M138.24,96
	c-1.707,1.707-0.853,4.267,0.853,5.973s4.267,0.853,5.973-0.853s0.853-4.267-0.853-5.973S139.947,94.293,138.24,96z"/>
<g>
</g>
<g>
</g>
<g>
</g>
<g>
</g>
<g>
</g>
<g>
</g>
<g>
</g>
<g>
</g>
<g>
</g>
<g>
</g>
<g>
</g>
<g>
</g>
<g>
</g>
<g>
</g>
<g>
</g>
</svg>
